<?xml version="1.0" encoding="UTF-8" standalone="no"?>
<svg
   version="1.1"
   viewBox="0 0 1198.7 317.46"
   id="svg60"
   sodipodi:docname="amigo-ordering.svg"
   inkscape:version="1.1.1 (3bf5ae0d25, 2021-09-20)"
   inkscape:export-filename="C:\Users\Jan Phillip Juntado\Desktop\Ecommerce app\amigo_ordering_app\android\app\src\main\res\mipmap-hdpi\amigo_ordering.png"
   inkscape:export-xdpi="35.541698"
   inkscape:export-ydpi="35.541698"
   xmlns:inkscape="http://www.inkscape.org/namespaces/inkscape"
   xmlns:sodipodi="http://sodipodi.sourceforge.net/DTD/sodipodi-0.dtd"
   xmlns="http://www.w3.org/2000/svg"
   xmlns:svg="http://www.w3.org/2000/svg"
   xmlns:rdf="http://www.w3.org/1999/02/22-rdf-syntax-ns#"
   xmlns:cc="http://creativecommons.org/ns#"
   xmlns:dc="http://purl.org/dc/elements/1.1/">
  <defs
     id="defs64" />
  <sodipodi:namedview
     id="namedview62"
     pagecolor="#ffffff"
     bordercolor="#999999"
     borderopacity="1"
     inkscape:pageshadow="0"
     inkscape:pageopacity="0"
     inkscape:pagecheckerboard="0"
     showgrid="false"
     inkscape:zoom="1.1512472"
     inkscape:cx="599.7843"
     inkscape:cy="158.52373"
     inkscape:window-width="1920"
     inkscape:window-height="1013"
     inkscape:window-x="-9"
     inkscape:window-y="-9"
     inkscape:window-maximized="1"
     inkscape:current-layer="svg60" />
  <title
     id="title2">amigo-ordering</title>
  <g
     fill="#0baa4b"
     id="g26"
     style="fill:#06ed06;fill-opacity:1"
     inkscape:export-filename="C:\Users\Jan Phillip Juntado\Desktop\Ecommerce app\amigo_ordering_app\android\app\src\main\res\mipmap-hdpi\amigo_ordering.png"
     inkscape:export-xdpi="35.541698"
     inkscape:export-ydpi="35.541698">
    <path
       transform="translate(-400.67 -841.27)"
       d="M400.67,878c2.38-.09,4.77-0.21,7.15-0.28,11-.35,22-0.59,33-1.06,6.9-.29,13.82-0.39,20.71-1.08a76.07,76.07,0,0,0,22.95-6.22A22.74,22.74,0,0,1,498.76,868a6.9,6.9,0,0,1,5.55,5,16.86,16.86,0,0,0,1,2.63c1.54,3.14,3.94,5,7.58,4.69,1.41-.11,1.93.36,1.92,1.82q0,17.17.05,34.34a2.36,2.36,0,0,1-2,2.69,79.79,79.79,0,0,1-19.65,2.4c-4.87-.13-9.73-0.61-14.14-3.09a20.28,20.28,0,0,1-7.85-7.58c-0.83-1.43-1.36-1.32-2.56-.51a20.59,20.59,0,0,1-11.61,3.78,15.75,15.75,0,0,1-15.59-10.56c-0.55-1.42-1.21-2-2.77-2a38.15,38.15,0,0,1-8-.61c-4.08-.68-6.63-2.9-7.45-7.06-0.49-2.51-.57-2.49-3.07-2.25-9.5.94-15.91-3.09-19.19-12.05-0.1-.28-0.24-0.55-0.36-0.82V878Z"
       id="path4"
       style="fill:#06ed06;fill-opacity:1" />
    <path
       transform="translate(-400.67 -841.27)"
       d="M645.66,878.92a26.06,26.06,0,0,1-3.31,6.49c-4.23,5.51-9.92,7.17-16.56,6.3-2.25-.3-2.25-0.32-2.67,1.85-0.94,4.8-2.9,6.72-7.72,7.61a52.26,52.26,0,0,1-7.56.84,3.14,3.14,0,0,0-3.29,2.28c-3.3,8.39-12.57,12.17-21.48,8.93a21,21,0,0,1-5.6-2.78c-1.09-.82-1.71-0.59-2.38.48a22.26,22.26,0,0,1-8.36,7.92,24.48,24.48,0,0,1-13,2.7c-6.42-.26-12.76-1.33-19.11-2.2-2.93-.4-3.46-1-3.43-3.93q0.15-16,.28-32.1c0-2.67.08-2.74,2.74-2.93,3.1-.23,5.4-1.58,6.59-4.55,0.37-.92.78-1.83,1.11-2.77a7.51,7.51,0,0,1,6.2-5.19,23.62,23.62,0,0,1,14.14,1.73,76.94,76.94,0,0,0,22.27,6c10.83,1.36,21.74,1.3,32.63,1.6,9.5,0.26,19,.59,28.49.89v0.9Z"
       id="path6"
       style="fill:#06ed06;fill-opacity:1" />
    <path
       transform="translate(-400.67 -841.27)"
       d="M525.85,841.27a18.59,18.59,0,0,1,7.57,4,15.3,15.3,0,0,1-2,23.82c-1.94,1.28-2.29,2.9-2.3,4.94q-0.09,23.36-.24,46.72-0.1,17.32-.25,34.63c0,1.73-.48,2.17-2.22,2.26-2.28.12-4.57,0.24-6.85,0.43-1.81.15-2.2-.06-2-1.91,0.44-5,0-9.94.07-14.91,0.17-9.45-.11-18.91-0.17-28.36,0-6.77,0-13.54-.06-20.31,0-6.51-.17-13-0.21-19.54a4,4,0,0,0-2.13-3.76c-5.67-3.37-8.26-8.46-7.4-15s4.66-10.6,10.83-12.6l1.41-.47h6Z"
       id="path8"
       style="fill:#06ed06;fill-opacity:1" />
    <path
       transform="translate(-400.67 -841.27)"
       d="M523.16,1147.22c-2-1.1-2.75-2.77-2.89-5.1-0.39-6.54-1.05-13.07-1.63-19.6a3.52,3.52,0,0,1,2.21-3.82c4.47-2.19,9-4.19,13.56-6.21a2.79,2.79,0,0,1,3.28.41c3,2.56,6.18,5,9.28,7.5a15.1,15.1,0,0,1,1.33,1.2,1.63,1.63,0,0,1,.59,1.74c-0.33.71-1,.24-1.59,0.15-5.69-1-11-3.21-16.26-5.33-2.9-1.15-2.82-1.14-3,2-0.46,7.39-1,14.77-1.5,22.16a6.67,6.67,0,0,1-2.74,4.89h-0.6Z"
       id="path10"
       style="fill:#06ed06;fill-opacity:1" />
    <path
       transform="translate(-400.67 -841.27)"
       d="M554.15,926.65a44,44,0,0,1,17,2.66c5.48,2,9.78,5.43,11.93,11s1.37,11.18-1.75,16.32c-3.94,6.49-9.72,11-16.26,14.6A73.55,73.55,0,0,1,536.15,980c-6.64.61-13.26,1.36-19.85,2.4a15.5,15.5,0,0,0-8.16,3.39c-3.55,3.13-4.09,7.55-1.45,11.73,1.6,2.52,4,4.12,6.45,5.66,0.38,0.24.79,0.42,1.17,0.67s0.93,0.36.85,0.92a1.23,1.23,0,0,1-.9.71c-3.5,1.79-7,3.55-10.51,5.35-1.81.94-3.59,1.95-5.38,2.93a3.25,3.25,0,0,1-3.66,0,42.76,42.76,0,0,1-9-7.81c-3.59-4.32-4.47-9.42-3.65-14.77,1.6-10.36,7.58-17.79,16.35-23.09A46.35,46.35,0,0,1,519,961.9c8.52-.7,17.1-0.76,25.5-2.67,6.82-1.55,13.48-3.51,19.51-7.22,3.07-1.89,3.44-3.79,3-7.27a2,2,0,0,0-1.61-1.77c-2.94-.59-5.84-0.56-8.11,1.72-4.6,4.61-10.16,5.52-16.28,4.44-6.33-1.12-8.25-4.14-6.62-10.38a16.38,16.38,0,0,1,15.49-12.08C551.26,926.6,552.71,926.65,554.15,926.65Z"
       id="path12"
       style="fill:#06ed06;fill-opacity:1" />
    <path
       transform="translate(-400.67 -841.27)"
       d="M564,993.18c-0.09,8.07-4.08,13.9-10.45,18.43-7.82,5.56-16.7,8.76-25.72,11.67a102.79,102.79,0,0,0-12.8,4.94c-6.91,3.3-6.39,11.13-.83,14.93a21.84,21.84,0,0,0,1.91,1.17c1.08,0.58,1,1-.07,1.54-3.6,1.8-7.18,3.66-10.77,5.5-1.42.72-2.85,1.42-4.27,2.15a1.72,1.72,0,0,1-1.82.07c-6.58-3.88-10.59-9.45-10.92-17.22-0.2-4.88,1.89-9,5.14-12.52,5.21-5.69,11.67-9.55,18.66-12.62,5.29-2.33,10.9-3.78,16.22-6.05a27.11,27.11,0,0,0,7.79-4.6c2.51-2.28,4.53-4.8,4.4-8.42-0.1-2.87-1.65-5-3.55-7-0.33-.35-1-0.65-0.8-1.16s0.84-.42,1.31-0.47c6.91-.65,13.73-1.65,20.15-4.53,1.42-.64,2.33.46,3,1.56A25.38,25.38,0,0,1,564,993.18Z"
       id="path14"
       style="fill:#06ed06;fill-opacity:1" />
    <path
       transform="translate(-400.67 -841.27)"
       d="m528.14 1034.6v5.07a3 3 0 0 1-2 3.27c-2.21 0.76-4.44 1.48-6.63 2.3-1.05 0.4-1.38 0-1.37-1 0.06-4.23 0.09-8.46 0.21-12.68 0-1.42 1.16-2 2.34-2.39 4.28-1.47 8.59-2.88 12.85-4.4 4-1.44 8-3 12-4.5a2.88 2.88 0 0 1 3.32 0.46c4.36 4.24 7.32 9.22 7.55 15.43 0.32 8.43-3.63 14.59-10.69 18.85-4.24 2.56-9 4-13.64 5.6-4.3 1.43-8.58 2.9-12.73 4.72-0.68 0.3-1.35 0.64-2 1-3.79 2.11-4.64 4.33-2.85 8.26 0.71 1.55 0.4 2.23-1 3.06-3.11 1.88-6.15 3.87-9.14 5.92a2.1 2.1 0 0 1-2.82-0.09 12.07 12.07 0 0 1-5-9.44c-0.38-9.24 3.63-16.1 11.72-20.55a74.89 74.89 0 0 1 9.93-4.07 105.87 105.87 0 0 0 14.1-6.1 14.45 14.45 0 0 0 3-2 5.17 5.17 0 0 0 0.8-7.25c-1.41-2.09-3.49-3.38-5.55-4.67-0.73-0.46-1.48-1.53-2.24-1.12-0.59 0.32-0.17 1.57-0.19 2.4v3.88h0.08z"
       id="path16"
       style="fill:#06ed06;fill-opacity:1" />
    <path
       transform="translate(-400.67 -841.27)"
       d="M491.62,926c4.09,0.08,8.23,0,11.91,2.16,5.37,3.09,8.3,7.75,8.36,14,0,2.92-1.1,4.66-3.86,5.54-6.88,2.19-13.42,2.15-19.06-3.27-2.44-2.35-5.55-2.45-8.7-2.08a1.72,1.72,0,0,0-1.51,1.64c-0.43,3.91,0,6.36,4,7.94,5,2,10,4,15.07,5.72a43.94,43.94,0,0,0,7.29,1.53c0.47,0.08,1.19,0,1.26.55s-0.66.64-1.08,0.86c-3.21,1.7-6.44,3.37-9.64,5.08a29.68,29.68,0,0,0-7.43,5.45c-1.91,2-2.69,2.06-5.15.89-7.49-3.56-14.14-8.18-18.56-15.41a19.11,19.11,0,0,1-2.5-14.49c1.5-6.8,6-11,12.34-13.24A49.36,49.36,0,0,1,491.62,926Z"
       id="path18"
       style="fill:#06ed06;fill-opacity:1" />
    <path
       transform="translate(-400.67 -841.27)"
       d="m501.84 1095c-0.13-3.37 1.52-5.83 4-7.73a94.77 94.77 0 0 1 19-11.22 24.42 24.42 0 0 0 4.55-2.55c2.31-1.74 2.1-4.29-0.5-6.18-0.47-0.34-0.73-0.2-0.77 0.38v0.75a4.58 4.58 0 0 1-3.38 4.7 40 40 0 0 0-4.5 2 1 1 0 0 1-1.57-0.64c-1.22-3.3-0.4-5.47 2.83-6.71 7.24-2.8 14.62-5.21 22-7.75a1 1 0 0 1 1.48 0.72 21.33 21.33 0 0 1-4.35 25c-3.85 3.58-8.71 4.87-13.55 6.23-2.39 0.67-4.82 1.23-7.22 1.9-3.09 0.87-3.88 1.91-3.92 5.1v6.12a3.55 3.55 0 0 1-2.18 3.13 2.76 2.76 0 0 1-3.33-0.38 29.92 29.92 0 0 1-6.8-7.28 9.64 9.64 0 0 1-1.79-5.59z"
       id="path20"
       style="fill:#06ed06;fill-opacity:1" />
    <path
       transform="translate(-400.67 -841.27)"
       d="M518.34,1102c0-.4,0-0.8,0-1.19,0.06-2.3.67-3.13,2.88-3.74s4.72-1.23,7.08-1.82c5-1.23,9.46-3.64,14.08-5.73,1.6-.73,1.87-0.64,2.67.9,1.33,2.58.78,5.11-.15,7.65-1.91,5.22-6,8.23-10.66,10.78-8.92,4.9-18.36,8.66-27.68,12.66a47.33,47.33,0,0,1-7,2.67c-0.66.17-1.45,0.75-2-.13s0.34-1.32.79-1.82c2.68-3,6.31-4.65,9.59-6.79,6.54-4.28,13.33-8.17,19.39-13.14,1.53-1.25,2-2.49,1.42-3.72-0.31-.69-0.62-1-1.2-0.16-2,3-5.25,4.49-8.16,6.37-0.61.39-1,.09-1-0.55s0-1.49,0-2.24h-0.07Z"
       id="path22"
       style="fill:#06ed06;fill-opacity:1" />
    <path
       transform="translate(-400.67 -841.27)"
       d="m518.18 995.14v-8.36a1.14 1.14 0 0 1 1.11-1.41c2.61-0.31 5.22-0.69 7.83-1a1 1 0 0 1 1.19 1.12c0 4.63 0 9.25-0.05 13.88a2.32 2.32 0 0 1-1.57 2.31c-2.46 0.94-4.93 1.85-7.4 2.77-1.08 0.4-1.17-0.3-1.17-1.07q0-4.1 0-8.21h0.08z"
       id="path24"
       style="fill:#06ed06;fill-opacity:1" />
  </g>
  <g
     transform="translate(256.27 142.68) scale(1.04 1.02)"
     fill="#ededed"
     aria-label="AMIGO"
     id="g38"
     style="fill:#06ed06;fill-opacity:1">
    <path
       d="m66.202-16.451h-34.76l-5.5721 16.451h-23.748l33.698-93.134h26.269l33.698 93.134h-24.013zm-5.8375-17.512-11.542-34.096-11.41 34.096z"
       id="path28"
       style="fill:#06ed06;fill-opacity:1" />
    <path
       d="m223.96-93.134v93.134h-22.687v-55.854l-20.829 55.854h-18.308l-20.962-55.987v55.987h-22.687v-93.134h26.799l26.136 64.478 25.871-64.478z"
       id="path30"
       style="fill:#06ed06;fill-opacity:1" />
    <path
       d="m275.44-93.134v93.134h-22.687v-93.134z"
       id="path32"
       style="fill:#06ed06;fill-opacity:1" />
    <path
       d="m366.2-63.682q-2.5207-4.6434-7.2968-7.0315-4.6434-2.5207-11.012-2.5207-11.012 0-17.645 7.2968-6.6335 7.1642-6.6335 19.237 0 12.869 6.8988 20.166 7.0315 7.1642 19.237 7.1642 8.3582 0 14.063-4.2454 5.8375-4.2454 8.4909-12.206h-28.789v-16.716h49.353v21.095q-2.5207 8.4909-8.6236 15.788-5.9702 7.2969-15.257 11.808-9.2869 4.5108-20.962 4.5108-13.798 0-24.677-5.9701-10.746-6.1028-16.849-16.849-5.9702-10.746-5.9702-24.544 0-13.798 5.9702-24.544 6.1028-10.879 16.849-16.849 10.746-6.1028 24.544-6.1028 16.716 0 28.126 8.0929 11.542 8.0929 15.257 22.421z"
       id="path34"
       style="fill:#06ed06;fill-opacity:1" />
    <path
       d="m461.99 0.92869q-13.134 0-24.146-6.1028-10.879-6.1028-17.38-16.982-6.3682-11.012-6.3682-24.677 0-13.665 6.3682-24.544 6.5008-10.879 17.38-16.982 11.012-6.1028 24.146-6.1028t24.013 6.1028q11.012 6.1028 17.247 16.982 6.3682 10.879 6.3682 24.544 0 13.665-6.3682 24.677-6.3682 10.879-17.247 16.982-10.879 6.1028-24.013 6.1028zm0-20.697q11.144 0 17.778-7.4295 6.7662-7.4295 6.7662-19.635 0-12.338-6.7662-19.635-6.6335-7.4295-17.778-7.4295-11.277 0-18.043 7.2968-6.6335 7.2968-6.6335 19.768 0 12.338 6.6335 19.768 6.7662 7.2968 18.043 7.2968z"
       id="path36"
       style="fill:#06ed06;fill-opacity:1" />
  </g>
  <g
     transform="translate(256.27 282.41) scale(1.04 1.02)"
     fill="#d8d8d8"
     aria-label="PHARMACY"
     id="g56"
     style="fill:#06ed06;fill-opacity:1"
     inkscape:export-filename="C:\Users\Jan Phillip Juntado\Desktop\Ecommerce app\amigo_ordering_app\android\app\src\main\res\mipmap-xhdpi\amigo-ordering.png"
     inkscape:export-xdpi="35.541698"
     inkscape:export-ydpi="35.541698">
    <path
       d="m15.124 0v-92.869h34.76q11.808 0 20.299 3.8474 8.4909 3.7148 13.002 10.879 4.6434 7.0315 4.6434 17.114 0 9.8176-4.6434 16.982-4.5108 7.0315-13.002 10.879-8.4909 3.8474-20.299 3.8474h-29.32l4.3781-4.6434v33.964zm9.8176-33.168-4.3781-4.7761h29.055q13.93 0 21.095-5.9702 7.2968-6.1028 7.2968-17.114 0-11.144-7.2968-17.247-7.1642-6.1028-21.095-6.1028h-29.055l4.3781-4.6434z"
       fill="#d8d8d8"
       id="path40"
       style="fill:#06ed06;fill-opacity:1" />
    <path
       d="m190.77-92.869h9.6849v92.869h-9.6849zm-58.109 92.869h-9.8176v-92.869h9.8176zm59.038-42.852h-60.1v-8.6236h60.1z"
       id="path42"
       style="fill:#06ed06;fill-opacity:1" />
    <path
       d="m228.33 0 42.454-92.869h9.6849l42.454 92.869h-10.348l-39.005-87.164h3.9801l-39.005 87.164zm16.716-24.809 2.9187-7.9602h53.997l2.9187 7.9602z"
       id="path44"
       style="fill:#06ed06;fill-opacity:1" />
    <path
       d="m350.79 0v-92.869h34.76q11.808 0 20.299 3.8474 8.4909 3.7148 13.002 10.879 4.6434 7.0315 4.6434 17.114 0 9.8176-4.6434 16.982-4.5108 7.0315-13.002 10.879-8.4909 3.7148-20.299 3.7148h-29.32l4.3781-4.5108v33.964zm63.416 0-23.881-33.698h10.614l24.013 33.698zm-53.599-33.168-4.3781-4.6434h29.055q13.93 0 21.095-6.1028 7.2968-6.1028 7.2968-17.114 0-11.144-7.2968-17.247-7.1642-6.1028-21.095-6.1028h-29.055l4.3781-4.6434z"
       id="path46"
       style="fill:#06ed06;fill-opacity:1" />
    <path
       d="m459.19 0v-92.869h8.0929l42.454 72.438h-4.2454l42.056-72.438h8.0929v92.869h-9.4196v-78.143h2.2554l-38.74 66.335h-4.6434l-39.005-66.335h2.5207v78.143z"
       id="path48"
       style="fill:#06ed06;fill-opacity:1" />
    <path
       d="m589.04 0 42.454-92.869h9.6849l42.454 92.869h-10.348l-39.005-87.164h3.9801l-39.005 87.164zm16.716-24.809 2.9187-7.9602h53.997l2.9187 7.9602z"
       id="path50"
       style="fill:#06ed06;fill-opacity:1" />
    <path
       d="m753.28 0.79602q-10.481 0-19.37-3.4494-8.8889-3.5821-15.39-9.9502-6.5008-6.3682-10.216-14.992-3.5821-8.6236-3.5821-18.839 0-10.216 3.5821-18.839 3.7148-8.6236 10.216-14.992 6.6335-6.3682 15.522-9.8176 8.8889-3.5821 19.37-3.5821 10.083 0 18.972 3.4494 8.8889 3.3168 14.992 10.083l-6.2355 6.2355q-5.7048-5.8375-12.604-8.3582-6.8988-2.6534-14.859-2.6534-8.3582 0-15.522 2.9187-7.1642 2.7861-12.471 8.0929-5.3068 5.1741-8.3582 12.206-2.9187 6.8988-2.9187 15.257t2.9187 15.39q3.0514 6.8988 8.3582 12.206 5.3068 5.1741 12.471 8.0929 7.1642 2.7861 15.522 2.7861 7.9602 0 14.859-2.6534 6.8988-2.6534 12.604-8.4909l6.2355 6.2355q-6.1028 6.7662-14.992 10.216-8.8889 3.4494-19.104 3.4494z"
       id="path52"
       style="fill:#06ed06;fill-opacity:1" />
    <path
       d="m842.7 0v-34.494l2.2554 6.1028-39.403-64.478h10.481l34.627 56.65h-5.5721l34.627-56.65h9.8176l-39.403 64.478 2.2554-6.1028v34.494z"
       id="path54"
       style="fill:#06ed06;fill-opacity:1" />
  </g>
  <metadata
     id="metadata58">
    <rdf:RDF>
      <cc:Work
         rdf:about="">
        <dc:title>amigo-ordering</dc:title>
      </cc:Work>
    </rdf:RDF>
  </metadata>
</svg>
